<?xml version="1.0" encoding="UTF-8" standalone="no"?>
<!DOCTYPE svg PUBLIC "-//W3C//DTD SVG 1.1//EN" "http://www.w3.org/Graphics/SVG/1.1/DTD/svg11.dtd">
<!-- Created with Vectornator (http://vectornator.io/) -->
<svg height="100%" stroke-miterlimit="10" style="fill-rule:nonzero;clip-rule:evenodd;stroke-linecap:round;stroke-linejoin:round;" version="1.1" viewBox="349.514 331.157 324.973 361.686" width="100%" xml:space="preserve" xmlns="http://www.w3.org/2000/svg" xmlns:vectornator="http://vectornator.io" xmlns:xlink="http://www.w3.org/1999/xlink">
<defs/>
<g id="Layer" vectornator:layerName="Layer">
<g opacity="1" vectornator:layerName="Group 3">
<path d="M529.237 405.125C520.069 405.136 510.833 405.357 501.664 405.444C479.372 405.656 457.08 405.9 434.801 406.189C403.688 406.593 384.847 470.239 403.712 490.726C443.285 533.705 481.106 579.415 522.638 620.619C547.111 644.898 572.881 667.565 601.105 687.271C625.922 704.592 671.406 679.475 672.973 640.315C675.419 579.165 674.704 517.806 672.227 456.656C671.345 434.833 645.185 408.697 623.571 407.467C592.175 405.68 560.698 405.084 529.237 405.125Z" fill="#5a24a6" fill-rule="nonzero" opacity="1" stroke="none" vectornator:layerName="Curve 14"/>
<path d="M495.085 619.437C504.274 619.427 513.531 619.205 522.723 619.117C545.066 618.905 567.406 618.66 589.736 618.37C620.917 617.965 639.802 554.195 620.893 533.668C581.232 490.605 543.325 444.806 501.702 403.521C477.175 379.195 451.346 356.483 423.057 336.741C398.186 319.384 352.6 344.549 351.029 383.786C348.58 445.057 349.295 506.535 351.775 567.805C352.661 589.671 378.878 615.856 400.544 617.089C432.008 618.881 463.557 619.478 495.085 619.437Z" fill="#cbc5d9" fill-rule="nonzero" opacity="0.703675" stroke="none" vectornator:layerName="Curve 15"/>
</g>
</g>
</svg>
