<?xml version="1.0" encoding="UTF-8" standalone="no"?>
<!DOCTYPE svg PUBLIC "-//W3C//DTD SVG 1.1//EN" "http://www.w3.org/Graphics/SVG/1.1/DTD/svg11.dtd">
<!-- Created with Vectornator (http://vectornator.io/) -->
<svg height="100%" stroke-miterlimit="10" style="fill-rule:nonzero;clip-rule:evenodd;stroke-linecap:round;stroke-linejoin:round;" version="1.1" viewBox="144.371 64.4673 761.099 105.533" width="100%" xml:space="preserve" xmlns="http://www.w3.org/2000/svg" xmlns:vectornator="http://vectornator.io" xmlns:xlink="http://www.w3.org/1999/xlink">
<defs/>
<g id="Layer" vectornator:layerName="Layer">
<g opacity="1" vectornator:layerName="Group 3">
<g opacity="1" vectornator:layerName="Group 1">
<path d="M145.458 88.8183L178.544 88.8183L178.544 126.594C178.544 133.614 176.873 138.963 173.531 142.64C170.189 146.318 165.37 148.156 159.076 148.156C157.461 148.156 155.874 148.017 154.314 147.738C152.754 147.46 151.306 147.084 149.969 146.61C148.632 146.137 147.477 145.621 146.502 145.064C145.527 144.507 144.817 143.978 144.371 143.476L147.379 137.96C147.992 138.35 148.674 138.768 149.426 139.214C150.178 139.66 151.014 140.091 151.933 140.509C152.852 140.927 153.882 141.275 155.024 141.554C156.166 141.832 157.461 141.972 158.909 141.972C163.087 141.972 166.248 140.662 168.392 138.044C170.537 135.425 171.609 131.191 171.609 125.34L171.609 95.0028L145.458 95.0028L145.458 88.8183Z" fill="#101828" fill-rule="nonzero" opacity="1" stroke="none" vectornator:layerName="Curve"/>
<path d="M231.682 142.055C230.679 142.947 229.496 143.783 228.131 144.563C226.766 145.343 225.277 146.011 223.661 146.568C222.046 147.125 220.361 147.557 218.606 147.864C216.852 148.17 215.083 148.323 213.301 148.323C209.959 148.323 207.007 147.808 204.444 146.777C201.882 145.747 199.738 144.27 198.011 142.348C196.284 140.426 194.975 138.127 194.084 135.453C193.193 132.779 192.747 129.77 192.747 126.427C192.747 122.917 193.235 119.797 194.209 117.067C195.184 114.336 196.591 112.052 198.429 110.213C200.267 108.375 202.495 106.968 205.113 105.993C207.731 105.018 210.655 104.53 213.886 104.53C216.225 104.53 218.537 104.837 220.82 105.45C223.104 106.063 225.123 107.219 226.878 108.918C228.632 110.617 229.983 112.957 230.93 115.938C231.877 118.919 232.211 122.777 231.933 127.513L199.599 127.513C199.599 132.528 200.949 136.275 203.651 138.754C206.352 141.233 209.959 142.473 214.471 142.473C215.975 142.473 217.464 142.292 218.941 141.93C220.417 141.568 221.823 141.136 223.16 140.635C224.497 140.133 225.68 139.576 226.711 138.963C227.741 138.35 228.535 137.793 229.092 137.292L231.682 142.055ZM214.053 110.046C212.215 110.046 210.474 110.241 208.831 110.631C207.188 111.021 205.74 111.676 204.486 112.595C203.233 113.515 202.203 114.713 201.395 116.189C200.587 117.665 200.072 119.49 199.849 121.663L225.834 121.663C225.555 117.986 224.371 115.13 222.283 113.097C220.194 111.063 217.451 110.046 214.053 110.046ZM213.635 87.1468L222.742 87.1468L212.8 99.5994L208.204 99.5994L213.635 87.1468Z" fill="#101828" fill-rule="nonzero" opacity="1" stroke="none" vectornator:layerName="Curve"/>
<path d="M243.129 147.321L243.129 141.721L254.408 141.721L254.408 111.133L243.129 111.133L243.129 105.533L258.753 105.533L260.089 110.966L260.507 110.966C262.401 109.238 264.518 107.762 266.857 106.536C269.196 105.31 271.981 104.697 275.212 104.697C277.106 104.697 278.624 105.06 279.766 105.784C280.907 106.508 281.799 107.567 282.439 108.96C283.08 110.353 283.511 112.038 283.734 114.016C283.957 115.994 284.068 118.237 284.068 120.744L278.22 120.827C278.22 117.262 277.872 114.643 277.176 112.971C276.479 111.3 275.212 110.464 273.374 110.464C271.647 110.464 270.088 110.715 268.695 111.216C267.303 111.718 266.091 112.331 265.061 113.055C264.03 113.779 263.153 114.504 262.429 115.228C261.705 115.952 261.176 116.565 260.841 117.067L260.841 141.721L276.883 141.721L276.883 147.321L243.129 147.321Z" fill="#101828" fill-rule="nonzero" opacity="1" stroke="none" vectornator:layerName="Curve"/>
<path d="M292.507 126.427C292.507 119.685 294.262 114.35 297.771 110.422C301.28 106.494 306.293 104.53 312.81 104.53C316.319 104.53 319.341 105.101 321.875 106.244C324.41 107.386 326.512 108.932 328.183 110.882C329.854 112.832 331.094 115.144 331.901 117.819C332.709 120.493 333.113 123.362 333.113 126.427C333.113 129.77 332.667 132.792 331.776 135.495C330.885 138.197 329.576 140.495 327.849 142.39C326.122 144.284 323.992 145.747 321.458 146.777C318.923 147.808 316.041 148.323 312.81 148.323C309.357 148.323 306.349 147.752 303.787 146.61C301.224 145.468 299.108 143.922 297.437 141.972C295.766 140.022 294.526 137.709 293.719 135.035C292.911 132.361 292.507 129.491 292.507 126.427ZM299.442 126.427C299.442 128.377 299.679 130.327 300.152 132.277C300.626 134.227 301.391 135.982 302.45 137.542C303.508 139.102 304.887 140.356 306.585 141.303C308.284 142.25 310.359 142.724 312.81 142.724C317.266 142.724 320.622 141.345 322.878 138.587C325.134 135.829 326.262 131.776 326.262 126.427C326.262 124.421 326.025 122.457 325.552 120.535C325.078 118.613 324.298 116.872 323.212 115.311C322.126 113.751 320.733 112.498 319.035 111.551C317.336 110.603 315.261 110.13 312.81 110.13C308.354 110.13 305.012 111.495 302.784 114.225C300.556 116.955 299.442 121.022 299.442 126.427ZM311.724 86.1439L314.815 86.1439L326.095 101.355L319.578 101.355L312.81 92.2449L305.625 101.355L299.776 101.355L311.724 86.1439Z" fill="#101828" fill-rule="nonzero" opacity="1" stroke="none" vectornator:layerName="Curve"/>
<path d="M359.766 147.321L359.766 119.49C359.766 118.32 359.724 117.192 359.64 116.105C359.557 115.019 359.362 114.044 359.055 113.18C358.749 112.317 358.303 111.634 357.719 111.133C357.134 110.631 356.368 110.381 355.421 110.381C353.527 110.381 351.926 111.161 350.617 112.721C349.308 114.281 348.319 116.231 347.651 118.571L347.651 147.321L341.301 147.321L341.301 105.533L345.646 105.533L346.899 110.631L347.233 110.631C347.79 109.796 348.333 109.002 348.862 108.249C349.391 107.497 350.004 106.843 350.7 106.285C351.397 105.728 352.218 105.296 353.165 104.99C354.112 104.684 355.31 104.53 356.758 104.53C357.593 104.53 358.457 104.656 359.348 104.906C360.239 105.157 361.061 105.547 361.813 106.076C362.565 106.606 363.219 107.316 363.776 108.208C364.333 109.099 364.695 110.186 364.862 111.467C366.143 109.294 367.578 107.595 369.165 106.369C370.753 105.143 372.939 104.53 375.724 104.53C377.562 104.53 379.052 104.837 380.194 105.45C381.336 106.063 382.227 106.94 382.867 108.082C383.508 109.224 383.954 110.589 384.204 112.177C384.455 113.765 384.58 115.534 384.58 117.484L384.58 147.321L378.23 147.321L378.23 118.905C378.23 117.735 378.175 116.635 378.063 115.604C377.952 114.573 377.743 113.668 377.437 112.888C377.13 112.108 376.713 111.495 376.183 111.049C375.654 110.603 374.944 110.381 374.053 110.381C372.103 110.381 370.46 111.161 369.123 112.721C367.787 114.281 366.784 116.509 366.115 119.407L366.115 147.321L359.766 147.321Z" fill="#101828" fill-rule="nonzero" opacity="1" stroke="none" vectornator:layerName="Curve"/>
<path d="M432.204 142.055C431.202 142.947 430.018 143.783 428.653 144.563C427.289 145.343 425.799 146.011 424.183 146.568C422.568 147.125 420.883 147.557 419.129 147.864C417.374 148.17 415.605 148.323 413.823 148.323C410.481 148.323 407.529 147.808 404.967 146.777C402.404 145.747 400.26 144.27 398.533 142.348C396.807 140.426 395.498 138.127 394.606 135.453C393.715 132.779 393.27 129.77 393.27 126.427C393.27 122.917 393.757 119.797 394.732 117.067C395.706 114.336 397.113 112.052 398.951 110.213C400.789 108.375 403.017 106.968 405.635 105.993C408.253 105.018 411.177 104.53 414.408 104.53C416.747 104.53 419.059 104.837 421.343 105.45C423.626 106.063 425.646 107.219 427.4 108.918C429.155 110.617 430.505 112.957 431.452 115.938C432.399 118.919 432.733 122.777 432.455 127.513L400.121 127.513C400.121 132.528 401.471 136.275 404.173 138.754C406.874 141.233 410.481 142.473 414.993 142.473C416.497 142.473 417.987 142.292 419.463 141.93C420.939 141.568 422.345 141.136 423.682 140.635C425.019 140.133 426.203 139.576 427.233 138.963C428.263 138.35 429.057 137.793 429.614 137.292L432.204 142.055ZM414.575 110.046C412.737 110.046 410.996 110.241 409.353 110.631C407.71 111.021 406.262 111.676 405.008 112.595C403.755 113.515 402.725 114.713 401.917 116.189C401.109 117.665 400.594 119.49 400.371 121.663L426.356 121.663C426.077 117.986 424.894 115.13 422.805 113.097C420.716 111.063 417.973 110.046 414.575 110.046Z" fill="#101828" fill-rule="nonzero" opacity="1" stroke="none" vectornator:layerName="Curve"/>
</g>
<g opacity="1" vectornator:layerName="Group 3">
<path d="M467.763 64.496C460.92 64.9715 453.339 71.2738 452.994 79.8942C452.277 97.8428 452.485 115.84 453.212 133.788C453.471 140.193 461.146 147.873 467.491 148.234C479.376 148.91 491.29 148.918 503.201 148.805C491.011 136.711 479.922 123.278 468.306 110.663C462.77 104.65 468.286 85.9979 477.418 85.8794C483.957 85.7945 490.511 85.6966 497.054 85.6345C489.88 78.5187 482.319 71.8769 474.045 66.1012C472.224 64.8301 470.043 64.3376 467.763 64.496Z" fill="#cbc5d9" fill-rule="nonzero" opacity="1" stroke="none" vectornator:layerName="Curve 10"/>
<path d="M505.132 85.5529C502.441 85.5564 499.746 85.609 497.054 85.6345C509.255 97.7354 520.352 111.152 531.976 123.776C537.513 129.79 531.997 148.469 522.865 148.587C516.31 148.673 509.76 148.743 503.201 148.805C510.384 155.931 517.953 162.583 526.237 168.366C533.521 173.45 546.856 166.066 547.315 154.573C548.033 136.624 547.824 118.627 547.098 100.679C546.839 94.2736 539.163 86.5942 532.819 86.233C523.604 85.7085 514.366 85.5411 505.132 85.5529Z" fill="#5a24a6" fill-rule="nonzero" opacity="1" stroke="none" vectornator:layerName="Curve 11"/>
<path d="M497.054 85.6345C490.511 85.6966 483.957 85.7945 477.418 85.8794C468.286 85.9979 462.77 104.65 468.306 110.663C479.922 123.278 491.011 136.711 503.201 148.805C509.76 148.743 516.31 148.673 522.865 148.587C531.997 148.469 537.513 129.79 531.976 123.776C520.352 111.152 509.255 97.7354 497.054 85.6345Z" fill="#9f96d9" fill-rule="nonzero" opacity="1" stroke="none" vectornator:layerName="Curve 12"/>
</g>
<g opacity="1" vectornator:layerName="Group 4">
<path d="M568.76 80.043C570.876 79.5416 573.16 79.2073 575.611 79.0401C578.062 78.873 580.485 78.7894 582.88 78.7894C585.442 78.7894 588.046 79.0401 590.692 79.5416C593.338 80.043 595.747 80.9623 597.919 82.2995C600.091 83.6367 601.86 85.4753 603.225 87.8154C604.589 90.1555 605.272 93.1363 605.272 96.7579C605.272 100.324 604.631 103.332 603.35 105.784C602.069 108.235 600.37 110.227 598.253 111.76C596.137 113.292 593.714 114.392 590.984 115.061C588.255 115.729 585.442 116.064 582.546 116.064C582.267 116.064 581.808 116.064 581.167 116.064C580.527 116.064 579.858 116.05 579.162 116.022C578.466 115.994 577.783 115.952 577.115 115.896C576.447 115.841 575.973 115.785 575.695 115.729L575.695 137.96L568.76 137.96L568.76 80.043ZM583.047 84.8068C581.599 84.8068 580.206 84.8346 578.869 84.8903C577.533 84.946 576.474 85.0853 575.695 85.3082L575.695 109.545C575.973 109.656 576.419 109.726 577.031 109.754C577.644 109.782 578.285 109.809 578.953 109.837C579.621 109.865 580.262 109.879 580.875 109.879C581.487 109.879 581.933 109.879 582.212 109.879C584.105 109.879 585.985 109.698 587.851 109.336C589.717 108.974 591.402 108.319 592.906 107.372C594.41 106.425 595.621 105.088 596.541 103.36C597.46 101.633 597.919 99.4323 597.919 96.7579C597.919 94.4735 597.487 92.5653 596.624 91.0331C595.761 89.5009 594.619 88.2751 593.198 87.3558C591.778 86.4365 590.177 85.7818 588.394 85.3918C586.612 85.0018 584.829 84.8068 583.047 84.8068Z" fill="#101828" fill-rule="nonzero" opacity="1" stroke="none" vectornator:layerName="Curve"/>
<path d="M615.298 117.067C615.298 110.325 617.052 104.99 620.561 101.062C624.071 97.134 629.084 95.17 635.601 95.17C639.11 95.17 642.131 95.7411 644.666 96.8833C647.2 98.0255 649.303 99.5716 650.974 101.522C652.645 103.472 653.884 105.784 654.692 108.458C655.5 111.133 655.903 114.002 655.903 117.067C655.903 120.41 655.458 123.432 654.567 126.134C653.675 128.837 652.366 131.135 650.64 133.029C648.913 134.924 646.782 136.386 644.248 137.417C641.714 138.448 638.831 138.963 635.601 138.963C632.147 138.963 629.139 138.392 626.577 137.25C624.015 136.108 621.898 134.561 620.227 132.611C618.556 130.661 617.317 128.349 616.509 125.675C615.702 123 615.298 120.131 615.298 117.067ZM622.232 117.067C622.232 119.017 622.469 120.967 622.943 122.917C623.416 124.867 624.182 126.622 625.24 128.182C626.299 129.742 627.677 130.996 629.376 131.943C631.075 132.89 633.15 133.364 635.601 133.364C640.057 133.364 643.413 131.985 645.668 129.227C647.924 126.469 649.052 122.415 649.052 117.067C649.052 115.061 648.816 113.097 648.342 111.175C647.869 109.252 647.089 107.511 646.003 105.951C644.916 104.391 643.524 103.137 641.825 102.19C640.126 101.243 638.051 100.769 635.601 100.769C631.145 100.769 627.802 102.135 625.574 104.865C623.346 107.595 622.232 111.662 622.232 117.067Z" fill="#101828" fill-rule="nonzero" opacity="1" stroke="none" vectornator:layerName="Curve"/>
<path d="M704.447 140.05C704.447 142.668 703.945 144.966 702.943 146.944C701.94 148.922 700.561 150.552 698.807 151.834C697.052 153.115 695.005 154.076 692.666 154.717C690.326 155.358 687.792 155.678 685.063 155.678C681.776 155.678 678.908 155.344 676.457 154.675C674.006 154.006 671.89 153.143 670.107 152.084L673.282 146.15C673.783 146.596 674.438 147.028 675.245 147.446C676.053 147.864 676.986 148.254 678.044 148.616C679.103 148.978 680.231 149.271 681.428 149.493C682.626 149.716 683.809 149.828 684.979 149.828C687.43 149.828 689.477 149.605 691.12 149.159C692.763 148.713 694.086 148.017 695.089 147.07C696.091 146.123 696.816 144.897 697.261 143.393C697.707 141.888 697.93 140.05 697.93 137.877L697.93 133.196L697.595 133.196C696.314 135.035 694.671 136.456 692.666 137.459C690.661 138.462 688.071 138.963 684.896 138.963C678.546 138.963 673.881 137.194 670.901 133.656C667.921 130.118 666.431 124.616 666.431 117.15C666.431 110.018 668.325 104.628 672.112 100.978C675.9 97.329 681.526 95.5043 688.99 95.5043C692.443 95.5043 695.381 95.7411 697.804 96.2147C700.227 96.6883 702.441 97.2872 704.447 98.0115L704.447 140.05ZM685.815 133.364C689.212 133.364 691.886 132.486 693.836 130.731C695.785 128.976 697.15 126.288 697.93 122.666L697.93 102.859C695.479 101.689 692.053 101.104 687.653 101.104C683.197 101.104 679.688 102.413 677.125 105.032C674.563 107.65 673.282 111.662 673.282 117.067C673.282 119.462 673.505 121.649 673.95 123.627C674.396 125.605 675.106 127.318 676.081 128.767C677.056 130.216 678.337 131.344 679.924 132.152C681.512 132.96 683.475 133.364 685.815 133.364Z" fill="#101828" fill-rule="nonzero" opacity="1" stroke="none" vectornator:layerName="Curve"/>
<path d="M754.995 132.695C753.992 133.586 752.809 134.422 751.444 135.202C750.079 135.982 748.589 136.651 746.974 137.208C745.359 137.765 743.674 138.197 741.919 138.503C740.165 138.81 738.396 138.963 736.614 138.963C733.272 138.963 730.319 138.448 727.757 137.417C725.195 136.386 723.051 134.91 721.324 132.987C719.597 131.065 718.288 128.767 717.397 126.093C716.506 123.418 716.06 120.41 716.06 117.067C716.06 113.556 716.547 110.436 717.522 107.706C718.497 104.976 719.903 102.692 721.742 100.853C723.58 99.0144 725.808 97.6076 728.426 96.6325C731.044 95.6575 733.968 95.17 737.198 95.17C739.538 95.17 741.849 95.4764 744.133 96.0893C746.417 96.7022 748.436 97.8583 750.191 99.5577C751.945 101.257 753.296 103.597 754.243 106.578C755.19 109.559 755.524 113.417 755.245 118.153L722.911 118.153C722.911 123.167 724.262 126.914 726.963 129.394C729.665 131.873 733.272 133.113 737.783 133.113C739.287 133.113 740.777 132.932 742.253 132.57C743.729 132.207 745.136 131.776 746.473 131.274C747.809 130.773 748.993 130.216 750.024 129.603C751.054 128.99 751.848 128.433 752.405 127.931L754.995 132.695ZM737.366 100.686C735.527 100.686 733.787 100.881 732.144 101.271C730.5 101.661 729.052 102.316 727.799 103.235C726.546 104.154 725.515 105.352 724.708 106.829C723.9 108.305 723.385 110.13 723.162 112.303L749.146 112.303C748.868 108.625 747.684 105.77 745.595 103.736C743.507 101.703 740.763 100.686 737.366 100.686Z" fill="#101828" fill-rule="nonzero" opacity="1" stroke="none" vectornator:layerName="Curve"/>
<path d="M769.95 99.4323C772.346 98.0394 775.047 97.0365 778.055 96.4236C781.063 95.8107 784.015 95.5043 786.911 95.5043C789.752 95.5043 792.077 95.95 793.888 96.8415C795.698 97.7329 797.118 98.8891 798.149 100.31C799.179 101.731 799.876 103.346 800.238 105.157C800.6 106.968 800.781 108.793 800.781 110.631C800.781 112.749 800.725 115.005 800.614 117.401C800.502 119.797 800.419 122.192 800.363 124.588C800.363 127.374 800.53 130.021 800.864 132.528L806.462 132.528L806.462 137.96L795.35 137.96L794.598 131.692L794.18 131.692C793.846 132.194 793.345 132.834 792.676 133.614C792.008 134.394 791.131 135.16 790.044 135.913C788.958 136.665 787.635 137.319 786.076 137.877C784.516 138.434 782.678 138.712 780.561 138.712C776.44 138.712 773.181 137.654 770.786 135.536C768.391 133.419 767.193 130.522 767.193 126.845C767.193 124.003 767.82 121.635 769.073 119.741C770.326 117.847 772.123 116.398 774.462 115.395C776.802 114.392 779.628 113.807 782.943 113.64C786.257 113.473 789.975 113.696 794.097 114.309C794.375 111.746 794.417 109.614 794.222 107.915C794.027 106.216 793.581 104.865 792.885 103.862C792.189 102.859 791.214 102.148 789.961 101.731C788.708 101.313 787.162 101.104 785.324 101.104C782.817 101.104 780.422 101.452 778.138 102.148C775.855 102.845 773.822 103.555 772.039 104.28L769.95 99.4323ZM782.232 133.113C783.792 133.113 785.24 132.862 786.577 132.361C787.914 131.859 789.084 131.218 790.086 130.438C791.089 129.658 791.924 128.809 792.593 127.889C793.261 126.97 793.762 126.093 794.097 125.257L794.097 119.407C791.2 118.905 788.527 118.654 786.076 118.654C783.625 118.654 781.508 118.919 779.726 119.448C777.943 119.978 776.551 120.8 775.548 121.914C774.546 123.028 774.044 124.477 774.044 126.26C774.044 128.098 774.671 129.7 775.924 131.065C777.178 132.43 779.28 133.113 782.232 133.113Z" fill="#101828" fill-rule="nonzero" opacity="1" stroke="none" vectornator:layerName="Curve"/>
<path d="M818.828 110.798C818.828 110.297 818.814 109.642 818.786 108.834C818.758 108.027 818.716 107.191 818.661 106.327C818.605 105.464 818.535 104.614 818.452 103.778C818.368 102.942 818.271 102.218 818.159 101.605L812.561 101.605L812.561 96.1729L823.757 96.1729L824.509 102.942L824.927 102.942C825.484 101.995 826.222 101.062 827.141 100.143C828.06 99.2234 829.132 98.3876 830.358 97.6354C831.583 96.8833 832.948 96.2843 834.452 95.8386C835.956 95.3929 837.543 95.17 839.214 95.17C841.776 95.17 844.046 95.4486 846.024 96.0057C848.001 96.5629 849.644 97.5519 850.953 98.9726C852.262 100.393 853.251 102.316 853.919 104.739C854.588 107.163 854.922 110.241 854.922 113.974L854.922 137.96L848.405 137.96L848.405 115.228C848.405 110.603 847.653 107.121 846.149 104.781C844.645 102.441 841.916 101.271 837.961 101.271C836.513 101.271 835.106 101.563 833.742 102.148C832.377 102.733 831.138 103.5 830.024 104.447C828.91 105.394 827.935 106.494 827.099 107.748C826.264 109.002 825.651 110.325 825.261 111.718L825.261 137.96L818.828 137.96L818.828 110.798Z" fill="#101828" fill-rule="nonzero" opacity="1" stroke="none" vectornator:layerName="Curve"/>
<path d="M863.778 96.1729L873.721 96.1729L873.721 87.899L880.238 86.0604L880.238 96.1729L902.546 96.1729L902.546 101.772L880.238 101.772L880.238 121.496C880.238 125.563 881.226 128.572 883.204 130.522C885.181 132.472 888.008 133.447 891.684 133.447C894.191 133.447 896.377 132.974 898.243 132.026C900.109 131.079 901.794 130.048 903.298 128.934L905.47 133.865C903.52 135.425 901.195 136.679 898.494 137.626C895.792 138.573 893.021 139.047 890.18 139.047C887.952 139.047 885.849 138.726 883.872 138.086C881.895 137.445 880.154 136.456 878.65 135.119C877.146 133.781 875.949 132.068 875.057 129.979C874.166 127.889 873.721 125.396 873.721 122.499L873.721 101.772L863.778 101.772L863.778 96.1729Z" fill="#101828" fill-rule="nonzero" opacity="1" stroke="none" vectornator:layerName="Curve"/>
</g>
</g>
</g>
</svg>
