<svg width="27" height="28" viewBox="0 0 27 28" fill="none" xmlns="http://www.w3.org/2000/svg" focusable="false" class="chakra-icon legacy-icon css-4ww3tz" role="img"><path d="M9.36426 13.7934C9.36426 11.3856 11.3162 9.43359 13.7241 9.43359C16.1319 9.43359 18.0839 11.3856 18.0839 13.7934C18.0839 16.2013 16.1319 18.1532 13.7241 18.1532C11.3162 18.1532 9.36426 16.2013 9.36426 13.7934Z" fill="#111056"></path><path fill-rule="evenodd" clip-rule="evenodd" d="M13.6937 22.6748C8.80011 22.6748 4.83307 18.6986 4.83307 13.7937C4.83307 8.88881 8.80011 4.9126 13.6937 4.9126C16.8706 4.9126 19.6571 6.58845 21.2211 9.10628C21.6322 9.76818 22.3208 10.2413 23.1001 10.2413V10.2413C25.0305 10.2413 26.4308 8.38639 25.4377 6.73096C23.0429 2.73903 18.6795 0.0683594 13.6937 0.0683594C6.13088 0.0683594 0 6.21341 0 13.7937C0 21.374 6.13088 27.5191 13.6937 27.5191C18.7578 27.5191 23.1799 24.7638 25.5491 20.6673C26.507 19.0111 25.108 17.1847 23.1948 17.1847V17.1847C22.4025 17.1847 21.7054 17.6739 21.2987 18.3538C19.7504 20.9423 16.9239 22.6748 13.6937 22.6748Z" fill="#111056"></path></svg>
